<svg xmlns="http://www.w3.org/2000/svg" viewBox="0 0 298.75 47.29"><defs><style>.cls-1{fill:none;stroke:#000;stroke-miterlimit:10;stroke-width:2.26px;}.cls-2{fill:#7f7f7f;}</style></defs><title>Asset 2</title><g id="Layer_2" data-name="Layer 2"><g id="Layer_1-2" data-name="Layer 1"><polyline class="cls-1" points="1.81 46.4 17.8 34.03 1.81 21 15.76 10.12"/><polygon points="14.57 15.92 15.23 10.53 9.84 9.86 12.41 7.86 17.8 8.52 17.14 13.91 14.57 15.92"/><path d="M31,38.39V17.87H24.4V15.42H31V7.34h2.83v8.08H43.91v2.45H33.78V37.64q0,3.49,1.49,4.93A6.52,6.52,0,0,0,40,44a15.18,15.18,0,0,0,4.49-.55v2.26a16.86,16.86,0,0,1-5,.68,9,9,0,0,1-6.21-2Q30.95,42.4,31,38.39Z"/><path d="M50.61,30.57q0-7.23,4-11.58a14.06,14.06,0,0,1,10.79-4.35q6.76,0,10.75,4.33t4,11.6q0,7.07-4.08,11.45A13.87,13.87,0,0,1,65.45,46.4q-6.77,0-10.8-4.32T50.61,30.57Zm26.6,0q0-6.24-3.19-9.9A10.79,10.79,0,0,0,65.45,17a11,11,0,0,0-8.66,3.65q-3.21,3.66-3.21,9.92t3.17,9.82A11,11,0,0,0,65.45,44a10.82,10.82,0,0,0,8.61-3.61Q77.21,36.8,77.21,30.57Z"/><path d="M87,30.76a17.24,17.24,0,0,1,2.28-9.35A13.28,13.28,0,0,1,95,16.23a17.07,17.07,0,0,1,7.19-1.59,24.78,24.78,0,0,1,4.85.47,14.7,14.7,0,0,1,3.83,1.25V19a19.32,19.32,0,0,0-4.24-1.46,20.54,20.54,0,0,0-4.51-.55,13,13,0,0,0-5.86,1.38,10.65,10.65,0,0,0-4.56,4.47,16,16,0,0,0-1.77,8q0,6,3.47,9.61A12.47,12.47,0,0,0,102.76,44,22.26,22.26,0,0,0,111,42.29v2.42a19.25,19.25,0,0,1-8.44,1.69,17.7,17.7,0,0,1-7.88-1.72,13.09,13.09,0,0,1-5.61-5.21A16.7,16.7,0,0,1,87,30.76Z"/><path d="M141.62,16.23,123.84,29.86,141.55,46.4H137.8L120.37,30h-.07V46.4h-2.84V8.15h2.84V29.41h.07l17.36-13.18Z"/><path class="cls-2" d="M187.24,16.45l-8.93,29.9h-2.82l-8.32-27.72H167L159,46.35h-2.82l-9.09-29.9h2.76l6,21.38,1.69,5.89h.13l7.81-27.27h3.43l6.21,21.25,1.69,6h.13L178,40.17l6.56-23.72Z"/><path class="cls-2" d="M194,37a8.23,8.23,0,0,1,2.89-6.56,11,11,0,0,1,7.48-2.5,27.08,27.08,0,0,1,9.18,1.76V25.83q0-4.26-2.2-6.43c-1.48-1.45-3.82-2.18-7.05-2.18a25.12,25.12,0,0,0-7.68,1.5v-2.4a10.54,10.54,0,0,1,3.22-1,23.49,23.49,0,0,1,4.46-.44q6,0,8.9,2.72c1.94,1.82,2.92,4.56,2.92,8.23V36q0,3.17.25,9.57h-2.3l-.45-3.49h-.13a12.58,12.58,0,0,1-4.29,3,13.1,13.1,0,0,1-5.47,1.28A10.32,10.32,0,0,1,196.68,44Q194,41.67,194,37Zm19.55,2.4V31.91a26.4,26.4,0,0,0-4.3-1.26,28.29,28.29,0,0,0-5.2-.37A8,8,0,0,0,198.6,32a6.28,6.28,0,0,0-2,4.95c0,2.39.65,4.16,2,5.33A7.43,7.43,0,0,0,203.74,44a11.23,11.23,0,0,0,5.79-1.37A17.3,17.3,0,0,0,213.56,39.37Z"/><path class="cls-2" d="M229.07,38.41V18.08h-5.92V15.65h5.92v-8h2.56v8h9.16v2.43h-9.16V37.67c0,2.31.45,3.93,1.35,4.88A5.56,5.56,0,0,0,237.2,44a12.29,12.29,0,0,0,4.07-.55v2.24a13.92,13.92,0,0,1-4.55.68,7.69,7.69,0,0,1-5.61-2C229.75,43,229.07,41.05,229.07,38.41Z"/><path class="cls-2" d="M248.2,30.85a18.43,18.43,0,0,1,2.06-9.26,12.58,12.58,0,0,1,5.2-5.14,14.44,14.44,0,0,1,6.5-1.57,20.37,20.37,0,0,1,4.39.47,12.41,12.41,0,0,1,3.45,1.23V19.2A17.27,17.27,0,0,0,266,17.76a16.85,16.85,0,0,0-4.08-.54,10.92,10.92,0,0,0-5.3,1.36A10.1,10.1,0,0,0,252.49,23a17.07,17.07,0,0,0-1.6,7.91q0,6,3.13,9.52A10.72,10.72,0,0,0,262.47,44a18,18,0,0,0,7.36-1.67v2.4a15.66,15.66,0,0,1-7.55,1.64,14.92,14.92,0,0,1-7.12-1.7,12.34,12.34,0,0,1-5.07-5.17A17.86,17.86,0,0,1,248.2,30.85Z"/><path class="cls-2" d="M279.16,0V17.89L279,21.32h.12q4.11-5.64,10-5.64,5,0,7.27,2.9t2.3,8.05V46.35h-2.53V26.41a9.8,9.8,0,0,0-1.74-6.17Q292.74,18,289.06,18q-5.73,0-9.9,6.24V46.35H276.6V0Z"/></g></g></svg>